<?xml version="1.0" encoding="iso-8859-1"?>
<!-- Generator: Adobe Illustrator 19.0.0, SVG Export Plug-In . SVG Version: 6.00 Build 0)  -->
<svg version="1.1" id="Capa_1" xmlns="http://www.w3.org/2000/svg" xmlns:xlink="http://www.w3.org/1999/xlink" x="0px" y="0px"
	 viewBox="0 0 512 512" style="enable-background:new 0 0 512 512;" xml:space="preserve">
<path style="fill:#F50F19;" d="M256.001,382.587c-94.87,0-158.297-28.01-194.802-51.507C20.808,305.081,3.228,278.635,2.5,277.522
	c-4.116-6.288-3.057-14.634,2.5-19.693c1.416-1.288,35.121-31.906,75.841-63.054c57.501-43.982,97.782-65.363,123.143-65.363
	c17.841,0,29.749,9.955,38.443,17.223c6.158,5.149,10.144,8.275,13.57,8.275c0.002,0,0.003,0,0.005,0
	c3.425,0,7.412-3.126,13.57-8.275c8.694-7.268,20.601-17.223,38.443-17.223c25.361,0,65.642,21.381,123.143,65.363
	c40.721,31.147,74.427,61.766,75.841,63.054c4.671,4.254,6.248,10.943,3.969,16.835c-0.43,1.112-0.981,2.151-1.635,3.108
	C504.989,284.239,435.84,382.587,256.001,382.587z"/>
<path style="fill:#FF3632;" d="M451.178,286.416c-44.188,0.001-109.296-5.25-149.98-32.458c-9.764,6.88-25.607,15.186-45.199,15.186
	c-19.591,0-35.433-8.304-45.197-15.185C146.05,297.263,19.403,284.94,13.746,284.364C7.742,283.75,2.66,279.665,0.77,273.932
	c-1.89-5.731-0.233-12.038,4.23-16.101c1.416-1.288,35.121-31.906,75.841-63.054c57.501-43.982,97.782-65.363,123.143-65.363
	c17.841,0,29.749,9.955,38.443,17.223c6.158,5.149,10.144,8.275,13.57,8.275c0.002,0,0.003,0,0.005,0
	c3.425,0,7.412-3.126,13.57-8.275c8.694-7.268,20.601-17.223,38.443-17.223c25.361,0,65.642,21.381,123.143,65.363
	c40.721,31.147,74.427,61.766,75.841,63.053c4.462,4.063,6.12,10.371,4.23,16.101c-1.89,5.732-6.972,9.818-12.976,10.432
	C496.152,284.577,477.321,286.415,451.178,286.416z"/>
<path style="fill:#C3000A;" d="M507,257.831c-1.416-1.288-35.121-31.906-75.841-63.054c-57.501-43.983-97.782-65.364-123.143-65.364
	c-17.841,0-29.749,9.955-38.443,17.223c-6.158,5.149-10.144,8.275-13.57,8.275c-0.002,0-0.003,0-0.005,0l0,0v227.675
	c0.001,0,0.002,0,0.003,0c179.84,0,248.988-98.348,253.334-104.814c0.654-0.957,1.205-1.996,1.635-3.108
	C513.248,268.773,511.671,262.085,507,257.831z"/>
<path style="fill:#F50F19;" d="M507,257.831c-1.416-1.288-35.121-31.906-75.841-63.054c-57.501-43.983-97.782-65.364-123.143-65.364
	c-17.841,0-29.749,9.955-38.443,17.223c-6.158,5.149-10.144,8.275-13.57,8.275c-0.002,0-0.003,0-0.005,0l0,0v114.231h0.001
	c19.592,0,35.435-8.305,45.199-15.186c40.685,27.208,105.792,32.459,149.98,32.458c26.143-0.001,44.974-1.839,47.076-2.053
	c6.004-0.614,11.087-4.699,12.976-10.432C513.12,268.201,511.462,261.894,507,257.831z"/>
<g>
</g>
<g>
</g>
<g>
</g>
<g>
</g>
<g>
</g>
<g>
</g>
<g>
</g>
<g>
</g>
<g>
</g>
<g>
</g>
<g>
</g>
<g>
</g>
<g>
</g>
<g>
</g>
<g>
</g>
</svg>
