<?xml version="1.0" encoding="iso-8859-1"?>
<!-- Generator: Adobe Illustrator 19.0.0, SVG Export Plug-In . SVG Version: 6.00 Build 0)  -->
<svg version="1.1" id="Capa_1" xmlns="http://www.w3.org/2000/svg" xmlns:xlink="http://www.w3.org/1999/xlink" x="0px" y="0px"
	 viewBox="0 0 512 512" style="enable-background:new 0 0 512 512;" xml:space="preserve">
<path style="fill:#F33A3A;" d="M511.958,249.485c0.027-0.019,0.042-0.029,0.042-0.029l-3.882-0.838
	c-11.676-2.959-48.615-14.641-95.555-52.583c-77.159-62.368-115.738-73.334-145.08-34.268c-0.668,0.89-1.312,1.797-1.931,2.721
	c-4.548,6.781-14.524,6.781-19.072,0c-0.62-0.924-1.263-1.831-1.931-2.721c-29.342-39.066-67.921-28.1-145.08,34.268
	c-46.711,37.757-83.518,49.51-95.382,52.539L0,249.455c0,0,0.019,0.013,0.049,0.034c-0.007,0.001-0.018,0.003-0.018,0.003
	c0.008,0,0.016,0.001,0.024,0.001c1.755,1.218,49.753,32.625,80.133,70.751c52.566,65.968,97.061,53.133,175.812,48.971
	c78.751,4.162,123.246,16.996,175.812-48.971c30.373-38.116,78.354-69.515,80.132-70.749c0.018-0.001,0.039-0.001,0.056-0.002
	C512,249.492,511.984,249.489,511.958,249.485z"/>
<path style="fill:#E23333;" d="M512,249.455c0,0-73.843,16.482-104.877,43.086c-64.039,54.9-111.658,41.55-190.409,37.388
	c-61.281,3.239-101.818,11.722-141.557-15.754c1.72,2.002,3.402,4.025,5.031,6.069c52.566,65.968,97.061,53.133,175.812,48.971
	c78.751,4.162,123.246,16.996,175.812-48.971c30.373-38.116,78.354-69.515,80.132-70.749c0.018-0.001,0.039-0.001,0.056-0.002
	c0,0-0.016-0.003-0.042-0.008C511.984,249.466,512,249.455,512,249.455z"/>
<path style="fill:#FF4C4C;" d="M511.883,249.43l-3.766-0.813c-11.676-2.959-48.615-14.641-95.555-52.583
	c-77.159-62.368-115.738-73.334-145.08-34.268c-0.668,0.89-1.312,1.797-1.931,2.721c-4.548,6.781-14.524,6.781-19.072,0
	c-0.62-0.924-1.263-1.831-1.931-2.721c-29.342-39.066-67.921-28.1-145.08,34.268c-46.711,37.757-83.518,49.51-95.382,52.539
	l-3.969,0.857c0.667,0.118,78.462,13.74,178.437-2.809c19.549-3.236,43.71,5.672,59.081,12.807c0.058,0.027,0.117,0.054,0.175,0.081
	c11.509,5.292,24.872,5.292,36.381,0c0.058-0.027,0.117-0.054,0.175-0.081c15.371-7.136,39.532-16.043,59.081-12.807
	C433.42,263.17,511.215,249.548,511.883,249.43z"/>
<g>
</g>
<g>
</g>
<g>
</g>
<g>
</g>
<g>
</g>
<g>
</g>
<g>
</g>
<g>
</g>
<g>
</g>
<g>
</g>
<g>
</g>
<g>
</g>
<g>
</g>
<g>
</g>
<g>
</g>
</svg>
