<?xml version="1.0" encoding="iso-8859-1"?>
<!-- Generator: Adobe Illustrator 19.0.0, SVG Export Plug-In . SVG Version: 6.00 Build 0)  -->
<svg version="1.1" id="Layer_1" xmlns="http://www.w3.org/2000/svg" xmlns:xlink="http://www.w3.org/1999/xlink" x="0px" y="0px"
	 viewBox="0 0 512 512" style="enable-background:new 0 0 512 512;" xml:space="preserve">
<path style="fill:#F7414B;" d="M506.779,189.132c-41.074,1.387-87.69-5.971-124.461-24.546
	c-38.634-19.513-71.018-69.177-126.318-9.681c-55.322-59.515-87.873-9.745-126.321,9.681
	C92.978,183.128,46.38,190.522,5.221,189.132c-4.855-0.148-7.098,5.951-3.321,8.977c3.12,8.398,25.412,63.772,97.064,142.441
	c27.122,29.779,57.351,44.877,89.85,44.877c33.184,0,58.489-15.869,67.187-22.136c8.699,6.267,34.007,22.136,67.185,22.136
	c32.498,0,62.728-15.098,89.85-44.877c71.653-78.669,93.945-134.042,97.065-142.441
	C513.884,195.073,511.621,188.979,506.779,189.132z M489.957,207.267C382.02,328.611,130.077,328.7,22.041,207.269
	C145.764,257.136,365.594,257.42,489.957,207.267z"/>
<path style="fill:#FC657B;" d="M506.779,189.132c-41.074,1.387-87.69-5.971-124.461-24.546
	c-38.674-19.533-70.971-69.097-126.193-9.811c3.384,31.924,12.457,62.144,26.178,89.644c66.712-1.966,146.108-12.333,207.654-37.153
	c-44.14,49.623-110.151,77.34-175.557,86.725c21.734,26.525,48.522,48.747,78.898,65.191
	c33.268-26.589,98.406-111.562,116.801-161.074C513.884,195.073,511.621,188.979,506.779,189.132z"/>
<path style="fill:#D82E3F;" d="M84.547,256.766c-25.469-14.343-46.732-31.768-62.506-49.498
	c19.769,7.968,42.563,14.82,67.518,20.411c6.73-23.622,19.546-44.678,36.632-61.382c-36.243,17.359-81.436,24.17-120.97,22.836
	c-4.855-0.148-7.098,5.951-3.321,8.977c3.12,8.398,25.412,63.772,97.064,142.441c7.885,8.657,16.034,16.064,24.424,22.231
	C96.415,334.871,81.941,296.868,84.547,256.766z"/>

</svg>
