<?xml version="1.0" encoding="iso-8859-1"?>
<!-- Generator: Adobe Illustrator 19.0.0, SVG Export Plug-In . SVG Version: 6.00 Build 0)  -->
<svg version="1.1" id="Capa_1" xmlns="http://www.w3.org/2000/svg" xmlns:xlink="http://www.w3.org/1999/xlink" x="0px" y="0px"
	 viewBox="0 0 512.001 512.001" style="enable-background:new 0 0 512.001 512.001;" xml:space="preserve">
<path style="fill:#D80027;" d="M330.181,245.964c-2.626,0.668-37.379,9.711-58.371,25.724c-9.274,7.074-22.345,7.074-31.619,0
	c-20.993-16.013-55.745-25.056-58.371-25.724L33.412,276.502c0,0,15.86,117.833,222.589,117.833S478.59,276.502,478.59,276.502
	L330.181,245.964z"/>
<path style="fill:#C70024;" d="M330.181,245.964c-2.626,0.668-37.379,9.711-58.371,25.724c-9.274,7.074-22.345,7.074-31.619,0
	c-20.993-16.013-55.745-25.056-58.371-25.724L33.412,276.502c0,0,11.163,82.881,136.719,109.621
	c-4.752-8.354-8.252-16.587-10.758-24.571c-5.617-17.893,5.056-36.879,23.243-41.452c15.64-3.933,30.595-8.955,44.834-15.066
	c18.178-7.802,38.812-7.861,56.985-0.051c39.786,17.096,85.15,25.731,135.473,25.732c0.003,0,0.004,0,0.007,0
	c9.975,0,20.136-0.362,30.411-1.054l0,0c24.797-27.419,28.264-53.159,28.264-53.159L330.181,245.964z"/>
<path style="fill:#FF0C38;" d="M298.46,123.122l-21.48,13.336c-12.849,7.978-29.111,7.978-41.961,0l-21.48-13.336
	c-11.939-7.412-27.072-7.317-38.917,0.246L21.486,221.143c-23.596,15.066-15.801,51.483,11.926,55.358
	c58.922,8.238,142.896,8.368,210.547-37.083c7.281-4.892,16.801-4.892,24.082,0c67.652,45.451,151.625,45.321,210.547,37.083
	c27.727-3.876,35.522-40.293,11.925-55.358l-153.135-97.776C325.532,115.805,310.399,115.709,298.46,123.122z"/>
<path style="fill:#D80027;" d="M135.63,148.267L21.486,221.146c-23.596,15.067-15.801,51.482,11.926,55.358
	c30,4.194,66.493,6.282,104.019,1.327C103.091,235.898,117.182,184.136,135.63,148.267z"/>
<path d="M494.549,214.822l-153.137-97.776c-14.192-9.063-32.604-9.178-46.909-0.296l-21.48,13.336
	c-10.501,6.521-23.547,6.521-34.049,0l-21.48-13.336c-14.305-8.88-32.718-8.765-46.909,0.296L17.45,214.822
	C3.985,223.42-2.514,239.077,0.895,254.71c2.998,13.752,13.014,24.3,26.17,28.08c2.839,11.374,12.157,39.482,42.573,65.099
	c4.396,3.702,9.095,0.942,10.578-0.775c2.707-3.135,2.36-7.871-0.775-10.578c-22.232-19.195-31.906-39.499-35.931-51.187
	c48.963,5.637,112.181,4.882,169.653-20.49c9.123,4.07,16.667,8.36,22.479,12.793c5.994,4.572,13.175,6.858,20.359,6.858
	c7.181,0,14.366-2.287,20.358-6.858c5.809-4.431,13.375-8.728,22.517-12.805c24.208,10.684,51.095,17.777,80.382,21.12
	c4.1,0.471,7.832-2.484,8.302-6.601c0.471-4.115-2.485-7.832-6.601-8.302c-41.863-4.78-78.446-17.522-108.734-37.87
	c-9.854-6.622-22.591-6.621-32.447,0c-65.77,44.187-147.96,43.9-205.326,35.88c-11.461-1.603-17.278-10.121-18.9-17.56
	c-1.636-7.504,0.125-17.762,9.972-24.05l153.137-97.776c9.354-5.973,21.494-6.051,30.925-0.194l21.48,13.336
	c15.382,9.549,34.492,9.549,49.873,0l21.48-13.336c9.431-5.854,21.566-5.779,30.925,0.194l153.137,97.776
	c9.848,6.288,11.608,16.546,9.972,24.05c-1.622,7.438-7.438,15.957-18.898,17.56c-21.206,2.965-42.049,4.349-61.99,4.116
	c-0.03-0.001-0.06-0.001-0.09-0.001c-4.101,0-7.449,3.3-7.497,7.412c-0.049,4.142,3.27,7.539,7.411,7.587
	c1.501,0.018,15.267,1.056,53.115-2.856c-3.624,10.548-11.843,28.116-29.748,45.529c-16.601,16.145-38.18,29.032-64.136,38.306
	c-32.814,11.724-72.723,17.668-118.616,17.668c-63.044,0-114.198-11.095-152.04-32.976c-3.585-2.076-8.173-0.85-10.247,2.738
	c-2.074,3.585-0.848,8.173,2.738,10.246c40.153,23.219,93.832,34.991,159.547,34.991c48.026,0,89.928-6.345,124.543-18.858
	c28.064-10.146,51.464-24.352,69.547-42.225c24.062-23.782,32.259-47.632,34.842-57.961c13.157-3.779,23.175-14.327,26.174-28.081
	C514.513,239.077,508.015,223.42,494.549,214.822z M248.142,245.645c4.772-3.209,10.942-3.207,15.716,0
	c5.778,3.882,11.774,7.492,17.963,10.851c-5.526,2.97-10.398,6.054-14.561,9.229c-6.631,5.057-15.892,5.057-22.521,0
	c-4.163-3.176-9.027-6.258-14.547-9.226C236.274,253.197,242.268,249.592,248.142,245.645z"/>
<g>
</g>
<g>
</g>
<g>
</g>
<g>
</g>
<g>
</g>
<g>
</g>
<g>
</g>
<g>
</g>
<g>
</g>
<g>
</g>
<g>
</g>
<g>
</g>
<g>
</g>
<g>
</g>
<g>
</g>
</svg>
